# xmcd
#
# Track frame offsets:
#	150
#	12928
#	27069
#	40216
#	53617
#	66275
#	79454
#	92799
#	106270
#	120130
#	133602
#	145517
#	158219
#	170325
#	181953
#	193607
#	206643
#	217633
#	229907
#	242134
#	253647
#	265915
#	278083
#
# Disc length: 3869 seconds
# Revision: 2
# Processed by: cddbd v1.5.2PL0 Copyright (c) Steve Scherf et al.
# Submitted via: dBpowerAMP V12.0
#
DISCID=350f1b17
DTITLE=Hank Williams - Hank Williams As Luke The Drifter (1955) - Memorial Album (1956)
DYEAR=1955
DGENRE=Country
TTITLE0=Picture From Life's Other Side
TTITLE1=Men With Broken Hearts
TTITLE2=Help Me Understand
TTITLE3=Too Many Parties, Too Many Pals
TTITLE4=Please Make Up Your Mind
TTITLE5=I've Been Down That Road Before
TTITLE6=Be Careful Of Stones That You Throw
TTITLE7=I Dreamed About Mama Last Night
TTITLE8=Funeral
TTITLE9=Beyond the Sunset
TTITLE10=Just Waitin'
TTITLE11=Everything's Okay
TTITLE12=Your Cheatin' Heart
TTITLE13=Settin' the Woods on Fire
TTITLE14=You Win Again
TTITLE15=Hey Good Lookin'
TTITLE16=Crazy Heart
TTITLE17=Move It On Over
TTITLE18=Cold, Cold Heart
TTITLE19=Kaw-Liga
TTITLE20=I Could Never Be Ashamed of You
TTITLE21=Half as Much
TTITLE22=I'm Sorry For You My Friend
EXTD=
EXTT0=
EXTT1=
EXTT2=
EXTT3=
EXTT4=
EXTT5=
EXTT6=
EXTT7=
EXTT8=
EXTT9=
EXTT10=
EXTT11=
EXTT12=
EXTT13=
EXTT14=
EXTT15=
EXTT16=
EXTT17=
EXTT18=
EXTT19=
EXTT20=
EXTT21=
EXTT22=
PLAYORDER=
